<?xml version="1.0" encoding="UTF-8" standalone="no"?>
<!DOCTYPE svg PUBLIC "-//W3C//DTD SVG 1.1//EN"
 "http://www.w3.org/Graphics/SVG/1.1/DTD/svg11.dtd">
<!-- Generated by graphviz version 2.40.1 (20161225.0304)
 -->
<!-- Title: dependencies Pages: 1 -->
<svg width="504pt" height="211pt"
 viewBox="0.00 0.00 504.00 211.00" xmlns="http://www.w3.org/2000/svg" xmlns:xlink="http://www.w3.org/1999/xlink">
<g id="graph0" class="graph" transform="scale(1 1) rotate(0) translate(4 207)">
<title>dependencies</title>
<polygon fill="#ffffff" stroke="transparent" points="-4,4 -4,-207 500,-207 500,4 -4,4"/>
<text text-anchor="start" x="227.0091" y="-42.4" font-family="sans-serif" font-weight="bold" font-size="14.00" fill="#000000">Legend</text>
<polygon fill="#ffffb3" stroke="transparent" points="14,-10 14,-30 34,-30 34,-10 14,-10"/>
<text text-anchor="start" x="37.629" y="-15.4" font-family="sans-serif" font-size="14.00" fill="#000000"> &#160;Declarations</text>
<polygon fill="#8dd3c7" stroke="transparent" points="127,-10 127,-30 147,-30 147,-10 127,-10"/>
<text text-anchor="start" x="150.7251" y="-15.4" font-family="sans-serif" font-size="14.00" fill="#000000"> &#160;Module</text>
<polygon fill="#80b1d3" stroke="transparent" points="213,-10 213,-30 233,-30 233,-10 213,-10"/>
<text text-anchor="start" x="236.7812" y="-15.4" font-family="sans-serif" font-size="14.00" fill="#000000"> &#160;Bootstrap</text>
<polygon fill="#fdb462" stroke="transparent" points="310,-10 310,-30 330,-30 330,-10 310,-10"/>
<text text-anchor="start" x="333.6732" y="-15.4" font-family="sans-serif" font-size="14.00" fill="#000000"> &#160;Providers</text>
<polygon fill="#fb8072" stroke="transparent" points="406,-10 406,-30 426,-30 426,-10 406,-10"/>
<text text-anchor="start" x="429.7258" y="-15.4" font-family="sans-serif" font-size="14.00" fill="#000000"> &#160;Exports</text>
<g id="clust1" class="cluster">
<title>cluster_AppModule</title>
<polygon fill="none" stroke="#000000" stroke-dasharray="1,5" points="8.5,-70 8.5,-195 487.5,-195 487.5,-70 8.5,-70"/>
</g>
<g id="clust3" class="cluster">
<title>cluster_AppModule_imports</title>
<polygon fill="none" stroke="#000000" points="154.5,-78 154.5,-130 479.5,-130 479.5,-78 154.5,-78"/>
</g>
<g id="clust6" class="cluster">
<title>cluster_AppModule_providers</title>
<polygon fill="none" stroke="#000000" points="16.5,-78 16.5,-130 146.5,-130 146.5,-78 16.5,-78"/>
</g>
<!-- AuthModule -->
<g id="node1" class="node">
<title>AuthModule</title>
<polygon fill="#8dd3c7" stroke="#000000" points="471.0482,-122 468.0482,-126 447.0482,-126 444.0482,-122 383.9518,-122 383.9518,-86 471.0482,-86 471.0482,-122"/>
<text text-anchor="middle" x="427.5" y="-99.8" font-family="Times,serif" font-size="14.00" fill="#000000">AuthModule</text>
</g>
<!-- AppModule -->
<g id="node4" class="node">
<title>AppModule</title>
<polygon fill="#8dd3c7" stroke="#000000" points="302.1571,-187 299.1571,-191 278.1571,-191 275.1571,-187 218.8429,-187 218.8429,-151 302.1571,-151 302.1571,-187"/>
<text text-anchor="middle" x="260.5" y="-164.8" font-family="Times,serif" font-size="14.00" fill="#000000">AppModule</text>
</g>
<!-- AuthModule&#45;&gt;AppModule -->
<g id="edge1" class="edge">
<title>AuthModule&#45;&gt;AppModule</title>
<path fill="none" stroke="#000000" d="M427.5,-122.1061C427.5,-141.3391 427.5,-169 427.5,-169 427.5,-169 312.2104,-169 312.2104,-169"/>
<polygon fill="#000000" stroke="#000000" points="312.2104,-165.5001 302.2104,-169 312.2103,-172.5001 312.2104,-165.5001"/>
</g>
<!-- ImovelModule -->
<g id="node2" class="node">
<title>ImovelModule</title>
<polygon fill="#8dd3c7" stroke="#000000" points="366.2064,-122 363.2064,-126 342.2064,-126 339.2064,-122 266.7936,-122 266.7936,-86 366.2064,-86 366.2064,-122"/>
<text text-anchor="middle" x="316.5" y="-99.8" font-family="Times,serif" font-size="14.00" fill="#000000">ImovelModule</text>
</g>
<!-- ImovelModule&#45;&gt;AppModule -->
<g id="edge2" class="edge">
<title>ImovelModule&#45;&gt;AppModule</title>
<path fill="none" stroke="#000000" d="M284.6126,-122.1061C284.6126,-122.1061 284.6126,-140.991 284.6126,-140.991"/>
<polygon fill="#000000" stroke="#000000" points="281.1126,-140.9909 284.6126,-150.991 288.1126,-140.991 281.1126,-140.9909"/>
</g>
<!-- UserModule -->
<g id="node3" class="node">
<title>UserModule</title>
<polygon fill="#8dd3c7" stroke="#000000" points="248.4762,-122 245.4762,-126 224.4762,-126 221.4762,-122 162.5238,-122 162.5238,-86 248.4762,-86 248.4762,-122"/>
<text text-anchor="middle" x="205.5" y="-99.8" font-family="Times,serif" font-size="14.00" fill="#000000">UserModule</text>
</g>
<!-- UserModule&#45;&gt;AppModule -->
<g id="edge3" class="edge">
<title>UserModule&#45;&gt;AppModule</title>
<path fill="none" stroke="#000000" d="M233.58,-122.1061C233.58,-122.1061 233.58,-140.991 233.58,-140.991"/>
<polygon fill="#000000" stroke="#000000" points="230.08,-140.9909 233.58,-150.991 237.08,-140.991 230.08,-140.9909"/>
</g>
<!-- AppService -->
<g id="node5" class="node">
<title>AppService</title>
<ellipse fill="#fdb462" stroke="#000000" cx="81.5" cy="-104" rx="56.7406" ry="18"/>
<text text-anchor="middle" x="81.5" y="-99.8" font-family="Times,serif" font-size="14.00" fill="#000000">AppService</text>
</g>
<!-- AppService&#45;&gt;AppModule -->
<g id="edge4" class="edge">
<title>AppService&#45;&gt;AppModule</title>
<path fill="none" stroke="#000000" d="M81.5,-122.1061C81.5,-141.3391 81.5,-169 81.5,-169 81.5,-169 208.5325,-169 208.5325,-169"/>
<polygon fill="#000000" stroke="#000000" points="208.5325,-172.5001 218.5325,-169 208.5324,-165.5001 208.5325,-172.5001"/>
</g>
</g>
</svg>
