<?xml version="1.0" encoding="UTF-8" standalone="no"?>
<!DOCTYPE svg PUBLIC "-//W3C//DTD SVG 1.1//EN"
 "http://www.w3.org/Graphics/SVG/1.1/DTD/svg11.dtd">
<!-- Generated by graphviz version 2.44.0 (20200408.0750)
 -->
<!-- Title: dependencies Pages: 1 -->
<svg width="1639pt" height="371pt"
 viewBox="0.00 0.00 1639.00 371.00" xmlns="http://www.w3.org/2000/svg" xmlns:xlink="http://www.w3.org/1999/xlink">
<g id="graph0" class="graph" transform="scale(1 1) rotate(0) translate(4 367)">
<title>dependencies</title>
<polygon fill="white" stroke="transparent" points="-4,4 -4,-367 1635,-367 1635,4 -4,4"/>
<text text-anchor="start" x="794.51" y="-42.4" font-family="sans-serif" font-weight="bold" font-size="14.00">Legend</text>
<polygon fill="#ffffb3" stroke="transparent" points="581.5,-10 581.5,-30 601.5,-30 601.5,-10 581.5,-10"/>
<text text-anchor="start" x="605.13" y="-15.4" font-family="sans-serif" font-size="14.00"> &#160;Declarations</text>
<polygon fill="#8dd3c7" stroke="transparent" points="694.5,-10 694.5,-30 714.5,-30 714.5,-10 694.5,-10"/>
<text text-anchor="start" x="718.23" y="-15.4" font-family="sans-serif" font-size="14.00"> &#160;Module</text>
<polygon fill="#80b1d3" stroke="transparent" points="780.5,-10 780.5,-30 800.5,-30 800.5,-10 780.5,-10"/>
<text text-anchor="start" x="804.28" y="-15.4" font-family="sans-serif" font-size="14.00"> &#160;Bootstrap</text>
<polygon fill="#fdb462" stroke="transparent" points="877.5,-10 877.5,-30 897.5,-30 897.5,-10 877.5,-10"/>
<text text-anchor="start" x="901.17" y="-15.4" font-family="sans-serif" font-size="14.00"> &#160;Providers</text>
<polygon fill="#fb8072" stroke="transparent" points="973.5,-10 973.5,-30 993.5,-30 993.5,-10 973.5,-10"/>
<text text-anchor="start" x="997.23" y="-15.4" font-family="sans-serif" font-size="14.00"> &#160;Exports</text>
<g id="clust1" class="cluster">
<title>cluster_AppModule</title>
<polygon fill="none" stroke="black" stroke-dasharray="1,5" points="50,-146 50,-355 901,-355 901,-146 50,-146"/>
</g>
<g id="clust2" class="cluster">
<title>cluster_AppModule_declarations</title>
<polygon fill="none" stroke="black" points="228,-154 228,-206 624,-206 624,-154 228,-154"/>
</g>
<g id="clust6" class="cluster">
<title>cluster_AppModule_imports</title>
<polygon fill="none" stroke="black" points="632,-154 632,-206 893,-206 893,-154 632,-154"/>
</g>
<g id="clust8" class="cluster">
<title>cluster_AppModule_bootstrap</title>
<polygon fill="none" stroke="black" points="425,-295 425,-347 549,-347 549,-295 425,-295"/>
</g>
<g id="clust9" class="cluster">
<title>cluster_AppModule_providers</title>
<polygon fill="none" stroke="black" points="58,-154 58,-206 220,-206 220,-154 58,-154"/>
</g>
<g id="clust16" class="cluster">
<title>cluster_ConsultaModule</title>
<polygon fill="none" stroke="black" stroke-dasharray="1,5" points="914,-222 914,-347 1100,-347 1100,-222 914,-222"/>
</g>
<g id="clust18" class="cluster">
<title>cluster_ConsultaModule_imports</title>
<polygon fill="none" stroke="black" points="922,-230 922,-282 1092,-282 1092,-230 922,-230"/>
</g>
<g id="clust22" class="cluster">
<title>cluster_ConsultaRoutingModule</title>
<polygon fill="none" stroke="black" stroke-dasharray="1,5" points="909,-146 909,-214 1117,-214 1117,-146 909,-146"/>
</g>
<g id="clust23" class="cluster">
<title>cluster_ConsultaRoutingModule_declarations</title>
<polygon fill="none" stroke="black" points="917,-154 917,-206 1109,-206 1109,-154 917,-154"/>
</g>
<g id="clust29" class="cluster">
<title>cluster_FormsModule</title>
<polygon fill="none" stroke="black" stroke-dasharray="1,5" points="1125,-222 1125,-347 1297,-347 1297,-222 1125,-222"/>
</g>
<g id="clust31" class="cluster">
<title>cluster_FormsModule_imports</title>
<polygon fill="none" stroke="black" points="1133,-230 1133,-282 1289,-282 1289,-230 1133,-230"/>
</g>
<g id="clust35" class="cluster">
<title>cluster_FormsRoutingModule</title>
<polygon fill="none" stroke="black" stroke-dasharray="1,5" points="1125,-146 1125,-214 1331,-214 1331,-146 1125,-146"/>
</g>
<g id="clust36" class="cluster">
<title>cluster_FormsRoutingModule_declarations</title>
<polygon fill="none" stroke="black" points="1133,-154 1133,-206 1323,-206 1323,-154 1133,-154"/>
</g>
<g id="clust42" class="cluster">
<title>cluster_SharedModule</title>
<polygon fill="none" stroke="black" stroke-dasharray="1,5" points="8,-70 8,-138 1623,-138 1623,-70 8,-70"/>
</g>
<g id="clust43" class="cluster">
<title>cluster_SharedModule_declarations</title>
<polygon fill="none" stroke="black" points="138,-78 138,-130 1615,-130 1615,-78 138,-78"/>
</g>
<g id="clust54" class="cluster">
<title>cluster_SharedModule_exports</title>
<polygon fill="none" stroke="black" points="16,-78 16,-130 130,-130 130,-78 16,-78"/>
</g>
<!-- AppComponent -->
<g id="node1" class="node">
<title>AppComponent</title>
<polygon fill="#ffffb3" stroke="black" points="473.94,-198 368.06,-198 368.06,-162 473.94,-162 473.94,-198"/>
<text text-anchor="middle" x="421" y="-175.8" font-family="Times,serif" font-size="14.00">AppComponent</text>
</g>
<!-- AppModule -->
<g id="node4" class="node">
<title>AppModule</title>
<polygon fill="#8dd3c7" stroke="black" points="528.66,-274 525.66,-278 504.66,-278 501.66,-274 445.34,-274 445.34,-238 528.66,-238 528.66,-274"/>
<text text-anchor="middle" x="487" y="-251.8" font-family="Times,serif" font-size="14.00">AppModule</text>
</g>
<!-- AppComponent&#45;&gt;AppModule -->
<g id="edge1" class="edge">
<title>AppComponent&#45;&gt;AppModule</title>
<path fill="none" stroke="black" d="M459.45,-198.01C459.45,-198.01 459.45,-227.85 459.45,-227.85"/>
<polygon fill="black" stroke="black" points="455.95,-227.85 459.45,-237.85 462.95,-227.85 455.95,-227.85"/>
</g>
<!-- LoginComponent -->
<g id="node2" class="node">
<title>LoginComponent</title>
<polygon fill="#ffffb3" stroke="black" points="350.28,-198 235.72,-198 235.72,-162 350.28,-162 350.28,-198"/>
<text text-anchor="middle" x="293" y="-175.8" font-family="Times,serif" font-size="14.00">LoginComponent</text>
</g>
<!-- LoginComponent&#45;&gt;AppModule -->
<g id="edge2" class="edge">
<title>LoginComponent&#45;&gt;AppModule</title>
<path fill="none" stroke="black" d="M293,-198.03C293,-218.77 293,-250 293,-250 293,-250 434.9,-250 434.9,-250"/>
<polygon fill="black" stroke="black" points="434.9,-253.5 444.9,-250 434.9,-246.5 434.9,-253.5"/>
</g>
<!-- SpinnerComponent -->
<g id="node3" class="node">
<title>SpinnerComponent</title>
<polygon fill="#ffffb3" stroke="black" points="616.38,-198 491.62,-198 491.62,-162 616.38,-162 616.38,-198"/>
<text text-anchor="middle" x="554" y="-175.8" font-family="Times,serif" font-size="14.00">SpinnerComponent</text>
</g>
<!-- SpinnerComponent&#45;&gt;AppModule -->
<g id="edge3" class="edge">
<title>SpinnerComponent&#45;&gt;AppModule</title>
<path fill="none" stroke="black" d="M510.19,-198.01C510.19,-198.01 510.19,-227.85 510.19,-227.85"/>
<polygon fill="black" stroke="black" points="506.69,-227.85 510.19,-237.85 513.69,-227.85 506.69,-227.85"/>
</g>
<!-- AppComponent  -->
<g id="node7" class="node">
<title>AppComponent </title>
<polygon fill="#80b1d3" stroke="black" points="541.44,-339 432.56,-339 432.56,-303 541.44,-303 541.44,-339"/>
<text text-anchor="middle" x="487" y="-316.8" font-family="Times,serif" font-size="14.00">AppComponent </text>
</g>
<!-- AppModule&#45;&gt;AppComponent  -->
<g id="edge6" class="edge">
<title>AppModule&#45;&gt;AppComponent </title>
<path fill="none" stroke="black" stroke-dasharray="1,5" d="M487,-274.11C487,-274.11 487,-292.99 487,-292.99"/>
<polygon fill="black" stroke="black" points="483.5,-292.99 487,-302.99 490.5,-292.99 483.5,-292.99"/>
</g>
<!-- AppRoutingModule -->
<g id="node5" class="node">
<title>AppRoutingModule</title>
<polygon fill="#8dd3c7" stroke="black" points="768.27,-198 765.27,-202 744.27,-202 741.27,-198 639.73,-198 639.73,-162 768.27,-162 768.27,-198"/>
<text text-anchor="middle" x="704" y="-175.8" font-family="Times,serif" font-size="14.00">AppRoutingModule</text>
</g>
<!-- AppRoutingModule&#45;&gt;AppModule -->
<g id="edge4" class="edge">
<title>AppRoutingModule&#45;&gt;AppModule</title>
<path fill="none" stroke="black" d="M704,-198.31C704,-218.15 704,-247 704,-247 704,-247 538.84,-247 538.84,-247"/>
<polygon fill="black" stroke="black" points="538.84,-243.5 528.84,-247 538.84,-250.5 538.84,-243.5"/>
</g>
<!-- SharedModule -->
<g id="node6" class="node">
<title>SharedModule</title>
<polygon fill="#8dd3c7" stroke="black" points="885.42,-198 882.42,-202 861.42,-202 858.42,-198 786.58,-198 786.58,-162 885.42,-162 885.42,-198"/>
<text text-anchor="middle" x="836" y="-175.8" font-family="Times,serif" font-size="14.00">SharedModule</text>
</g>
<!-- SharedModule&#45;&gt;AppModule -->
<g id="edge5" class="edge">
<title>SharedModule&#45;&gt;AppModule</title>
<path fill="none" stroke="black" d="M836,-198.01C836,-220.49 836,-256 836,-256 836,-256 538.75,-256 538.75,-256"/>
<polygon fill="black" stroke="black" points="538.75,-252.5 528.75,-256 538.75,-259.5 538.75,-252.5"/>
</g>
<!-- ConsultaRoutingModule -->
<g id="node9" class="node">
<title>ConsultaRoutingModule</title>
<polygon fill="#8dd3c7" stroke="black" points="1084.45,-274 1081.45,-278 1060.45,-278 1057.45,-274 929.55,-274 929.55,-238 1084.45,-238 1084.45,-274"/>
<text text-anchor="middle" x="1007" y="-251.8" font-family="Times,serif" font-size="14.00">ConsultaRoutingModule</text>
</g>
<!-- SharedModule&#45;&gt;ConsultaRoutingModule -->
<g id="edge10" class="edge">
<title>SharedModule&#45;&gt;ConsultaRoutingModule</title>
<path fill="none" stroke="black" d="M860.61,-198.03C860.61,-222.98 860.61,-265 860.61,-265 860.61,-265 919.52,-265 919.52,-265"/>
<polygon fill="black" stroke="black" points="919.52,-268.5 929.52,-265 919.52,-261.5 919.52,-268.5"/>
</g>
<!-- FormsRoutingModule -->
<g id="node12" class="node">
<title>FormsRoutingModule</title>
<polygon fill="#8dd3c7" stroke="black" points="1281.45,-274 1278.45,-278 1257.45,-278 1254.45,-274 1140.55,-274 1140.55,-238 1281.45,-238 1281.45,-274"/>
<text text-anchor="middle" x="1211" y="-251.8" font-family="Times,serif" font-size="14.00">FormsRoutingModule</text>
</g>
<!-- SharedModule&#45;&gt;FormsRoutingModule -->
<g id="edge13" class="edge">
<title>SharedModule&#45;&gt;FormsRoutingModule</title>
<path fill="none" stroke="black" d="M811.39,-198.11C811.39,-207.9 811.39,-218 811.39,-218 811.39,-218 1187.59,-218 1187.59,-218 1187.59,-218 1187.59,-227.89 1187.59,-227.89"/>
<polygon fill="black" stroke="black" points="1184.09,-227.89 1187.59,-237.89 1191.09,-227.89 1184.09,-227.89"/>
</g>
<!-- FormsModule  -->
<g id="node24" class="node">
<title>FormsModule </title>
<polygon fill="#fb8072" stroke="black" points="122.33,-122 23.67,-122 23.67,-86 122.33,-86 122.33,-122"/>
<text text-anchor="middle" x="73" y="-99.8" font-family="Times,serif" font-size="14.00">FormsModule </text>
</g>
<!-- SharedModule&#45;&gt;FormsModule  -->
<g id="edge23" class="edge">
<title>SharedModule&#45;&gt;FormsModule </title>
<path fill="none" stroke="black" stroke-dasharray="5,2" d="M790.67,-161.87C790.67,-151.29 790.67,-140 790.67,-140 790.67,-140 94.35,-140 94.35,-140 94.35,-140 94.35,-132.42 94.35,-132.42"/>
<polygon fill="black" stroke="black" points="97.85,-132.42 94.35,-122.42 90.85,-132.42 97.85,-132.42"/>
</g>
<!-- AuthInterceptor -->
<g id="node8" class="node">
<title>AuthInterceptor</title>
<ellipse fill="#fdb462" stroke="black" cx="139" cy="-180" rx="72.91" ry="18"/>
<text text-anchor="middle" x="139" y="-175.8" font-family="Times,serif" font-size="14.00">AuthInterceptor</text>
</g>
<!-- AuthInterceptor&#45;&gt;AppModule -->
<g id="edge7" class="edge">
<title>AuthInterceptor&#45;&gt;AppModule</title>
<path fill="none" stroke="black" d="M139,-198.2C139,-222.36 139,-262 139,-262 139,-262 435.02,-262 435.02,-262"/>
<polygon fill="black" stroke="black" points="435.02,-265.5 445.02,-262 435.02,-258.5 435.02,-265.5"/>
</g>
<!-- ConsultaModule -->
<g id="node10" class="node">
<title>ConsultaModule</title>
<polygon fill="#8dd3c7" stroke="black" points="1061.83,-339 1058.83,-343 1037.83,-343 1034.83,-339 952.17,-339 952.17,-303 1061.83,-303 1061.83,-339"/>
<text text-anchor="middle" x="1007" y="-316.8" font-family="Times,serif" font-size="14.00">ConsultaModule</text>
</g>
<!-- ConsultaRoutingModule&#45;&gt;ConsultaModule -->
<g id="edge8" class="edge">
<title>ConsultaRoutingModule&#45;&gt;ConsultaModule</title>
<path fill="none" stroke="black" d="M1007,-274.11C1007,-274.11 1007,-292.99 1007,-292.99"/>
<polygon fill="black" stroke="black" points="1003.5,-292.99 1007,-302.99 1010.5,-292.99 1003.5,-292.99"/>
</g>
<!-- ConsultaImoveisComponent -->
<g id="node11" class="node">
<title>ConsultaImoveisComponent</title>
<polygon fill="#ffffb3" stroke="black" points="1101.21,-198 924.79,-198 924.79,-162 1101.21,-162 1101.21,-198"/>
<text text-anchor="middle" x="1013" y="-175.8" font-family="Times,serif" font-size="14.00">ConsultaImoveisComponent</text>
</g>
<!-- ConsultaImoveisComponent&#45;&gt;ConsultaRoutingModule -->
<g id="edge9" class="edge">
<title>ConsultaImoveisComponent&#45;&gt;ConsultaRoutingModule</title>
<path fill="none" stroke="black" d="M1007,-198.01C1007,-198.01 1007,-227.85 1007,-227.85"/>
<polygon fill="black" stroke="black" points="1003.5,-227.85 1007,-237.85 1010.5,-227.85 1003.5,-227.85"/>
</g>
<!-- FormsModule -->
<g id="node13" class="node">
<title>FormsModule</title>
<polygon fill="#8dd3c7" stroke="black" points="1258.83,-339 1255.83,-343 1234.83,-343 1231.83,-339 1163.17,-339 1163.17,-303 1258.83,-303 1258.83,-339"/>
<text text-anchor="middle" x="1211" y="-316.8" font-family="Times,serif" font-size="14.00">FormsModule</text>
</g>
<!-- FormsRoutingModule&#45;&gt;FormsModule -->
<g id="edge11" class="edge">
<title>FormsRoutingModule&#45;&gt;FormsModule</title>
<path fill="none" stroke="black" d="M1211,-274.11C1211,-274.11 1211,-292.99 1211,-292.99"/>
<polygon fill="black" stroke="black" points="1207.5,-292.99 1211,-302.99 1214.5,-292.99 1207.5,-292.99"/>
</g>
<!-- CadastrarImovelComponent -->
<g id="node14" class="node">
<title>CadastrarImovelComponent</title>
<polygon fill="#ffffb3" stroke="black" points="1315.13,-198 1140.87,-198 1140.87,-162 1315.13,-162 1315.13,-198"/>
<text text-anchor="middle" x="1228" y="-175.8" font-family="Times,serif" font-size="14.00">CadastrarImovelComponent</text>
</g>
<!-- CadastrarImovelComponent&#45;&gt;FormsRoutingModule -->
<g id="edge12" class="edge">
<title>CadastrarImovelComponent&#45;&gt;FormsRoutingModule</title>
<path fill="none" stroke="black" d="M1234.41,-198.01C1234.41,-198.01 1234.41,-227.85 1234.41,-227.85"/>
<polygon fill="black" stroke="black" points="1230.91,-227.85 1234.41,-237.85 1237.91,-227.85 1230.91,-227.85"/>
</g>
<!-- AccountCardComponent -->
<g id="node15" class="node">
<title>AccountCardComponent</title>
<polygon fill="#ffffb3" stroke="black" points="1318.97,-122 1163.03,-122 1163.03,-86 1318.97,-86 1318.97,-122"/>
<text text-anchor="middle" x="1241" y="-99.8" font-family="Times,serif" font-size="14.00">AccountCardComponent</text>
</g>
<!-- AccountCardComponent&#45;&gt;SharedModule -->
<g id="edge14" class="edge">
<title>AccountCardComponent&#45;&gt;SharedModule</title>
<path fill="none" stroke="black" d="M1239.16,-122.04C1239.16,-134.56 1239.16,-149 1239.16,-149 1239.16,-149 856.47,-149 856.47,-149 856.47,-149 856.47,-151.97 856.47,-151.97"/>
<polygon fill="black" stroke="black" points="852.97,-151.97 856.47,-161.97 859.97,-151.97 852.97,-151.97"/>
</g>
<!-- AuthLayoutComponent -->
<g id="node16" class="node">
<title>AuthLayoutComponent</title>
<polygon fill="#ffffb3" stroke="black" points="1145.49,-122 996.51,-122 996.51,-86 1145.49,-86 1145.49,-122"/>
<text text-anchor="middle" x="1071" y="-99.8" font-family="Times,serif" font-size="14.00">AuthLayoutComponent</text>
</g>
<!-- AuthLayoutComponent&#45;&gt;SharedModule -->
<g id="edge15" class="edge">
<title>AuthLayoutComponent&#45;&gt;SharedModule</title>
<path fill="none" stroke="black" d="M1048.81,-122.1C1048.81,-133.09 1048.81,-145 1048.81,-145 1048.81,-145 846.89,-145 846.89,-145 846.89,-145 846.89,-151.68 846.89,-151.68"/>
<polygon fill="black" stroke="black" points="843.39,-151.68 846.89,-161.68 850.39,-151.68 843.39,-151.68"/>
</g>
<!-- MainLayoutComponent -->
<g id="node17" class="node">
<title>MainLayoutComponent</title>
<polygon fill="#ffffb3" stroke="black" points="978.04,-122 827.96,-122 827.96,-86 978.04,-86 978.04,-122"/>
<text text-anchor="middle" x="903" y="-99.8" font-family="Times,serif" font-size="14.00">MainLayoutComponent</text>
</g>
<!-- MainLayoutComponent&#45;&gt;SharedModule -->
<g id="edge16" class="edge">
<title>MainLayoutComponent&#45;&gt;SharedModule</title>
<path fill="none" stroke="black" d="M837.31,-122.01C837.31,-122.01 837.31,-151.85 837.31,-151.85"/>
<polygon fill="black" stroke="black" points="833.81,-151.85 837.31,-161.85 840.81,-151.85 833.81,-151.85"/>
</g>
<!-- MainNavComponent -->
<g id="node18" class="node">
<title>MainNavComponent</title>
<polygon fill="#ffffb3" stroke="black" points="810.2,-122 675.8,-122 675.8,-86 810.2,-86 810.2,-122"/>
<text text-anchor="middle" x="743" y="-99.8" font-family="Times,serif" font-size="14.00">MainNavComponent</text>
</g>
<!-- MainNavComponent&#45;&gt;SharedModule -->
<g id="edge17" class="edge">
<title>MainNavComponent&#45;&gt;SharedModule</title>
<path fill="none" stroke="black" d="M806.22,-122.01C806.22,-122.01 806.22,-151.85 806.22,-151.85"/>
<polygon fill="black" stroke="black" points="802.72,-151.85 806.22,-161.85 809.72,-151.85 802.72,-151.85"/>
</g>
<!-- MatConfirmDeleteComponent -->
<g id="node19" class="node">
<title>MatConfirmDeleteComponent</title>
<polygon fill="#ffffb3" stroke="black" points="657.85,-122 470.15,-122 470.15,-86 657.85,-86 657.85,-122"/>
<text text-anchor="middle" x="564" y="-99.8" font-family="Times,serif" font-size="14.00">MatConfirmDeleteComponent</text>
</g>
<!-- MatConfirmDeleteComponent&#45;&gt;SharedModule -->
<g id="edge18" class="edge">
<title>MatConfirmDeleteComponent&#45;&gt;SharedModule</title>
<path fill="none" stroke="black" d="M648.77,-122.12C648.77,-124.97 648.77,-127 648.77,-127 648.77,-127 802.33,-127 802.33,-127 802.33,-127 802.33,-151.76 802.33,-151.76"/>
<polygon fill="black" stroke="black" points="798.83,-151.76 802.33,-161.76 805.83,-151.76 798.83,-151.76"/>
</g>
<!-- MenuComponent -->
<g id="node20" class="node">
<title>MenuComponent</title>
<polygon fill="#ffffb3" stroke="black" points="451.99,-122 338.01,-122 338.01,-86 451.99,-86 451.99,-122"/>
<text text-anchor="middle" x="395" y="-99.8" font-family="Times,serif" font-size="14.00">MenuComponent</text>
</g>
<!-- MenuComponent&#45;&gt;SharedModule -->
<g id="edge19" class="edge">
<title>MenuComponent&#45;&gt;SharedModule</title>
<path fill="none" stroke="black" d="M410.14,-122.16C410.14,-127.04 410.14,-131 410.14,-131 410.14,-131 798.45,-131 798.45,-131 798.45,-131 798.45,-151.75 798.45,-151.75"/>
<polygon fill="black" stroke="black" points="794.95,-151.75 798.45,-161.75 801.95,-151.75 794.95,-151.75"/>
</g>
<!-- MenuDropdownComponent -->
<g id="node21" class="node">
<title>MenuDropdownComponent</title>
<polygon fill="#ffffb3" stroke="black" points="319.87,-122 146.13,-122 146.13,-86 319.87,-86 319.87,-122"/>
<text text-anchor="middle" x="233" y="-99.8" font-family="Times,serif" font-size="14.00">MenuDropdownComponent</text>
</g>
<!-- MenuDropdownComponent&#45;&gt;SharedModule -->
<g id="edge20" class="edge">
<title>MenuDropdownComponent&#45;&gt;SharedModule</title>
<path fill="none" stroke="black" d="M277.77,-122.24C277.77,-129.43 277.77,-136 277.77,-136 277.77,-136 794.56,-136 794.56,-136 794.56,-136 794.56,-151.85 794.56,-151.85"/>
<polygon fill="black" stroke="black" points="791.06,-151.85 794.56,-161.85 798.06,-151.85 791.06,-151.85"/>
</g>
<!-- SidenavComponent -->
<g id="node22" class="node">
<title>SidenavComponent</title>
<polygon fill="#ffffb3" stroke="black" points="1607.44,-122 1480.56,-122 1480.56,-86 1607.44,-86 1607.44,-122"/>
<text text-anchor="middle" x="1544" y="-99.8" font-family="Times,serif" font-size="14.00">SidenavComponent</text>
</g>
<!-- SidenavComponent&#45;&gt;SharedModule -->
<g id="edge21" class="edge">
<title>SidenavComponent&#45;&gt;SharedModule</title>
<path fill="none" stroke="black" d="M1544,-122.28C1544,-137.95 1544,-158 1544,-158 1544,-158 875.63,-158 875.63,-158 875.63,-158 875.63,-158.38 875.63,-158.38"/>
<polygon fill="black" stroke="black" points="872.13,-151.83 875.63,-161.83 879.13,-151.83 872.13,-151.83"/>
</g>
<!-- ToolbarComponent -->
<g id="node23" class="node">
<title>ToolbarComponent</title>
<polygon fill="#ffffb3" stroke="black" points="1462.65,-122 1337.35,-122 1337.35,-86 1462.65,-86 1462.65,-122"/>
<text text-anchor="middle" x="1400" y="-99.8" font-family="Times,serif" font-size="14.00">ToolbarComponent</text>
</g>
<!-- ToolbarComponent&#45;&gt;SharedModule -->
<g id="edge22" class="edge">
<title>ToolbarComponent&#45;&gt;SharedModule</title>
<path fill="none" stroke="black" d="M1400,-122.05C1400,-136.37 1400,-154 1400,-154 1400,-154 866.05,-154 866.05,-154 866.05,-154 866.05,-154.79 866.05,-154.79"/>
<polygon fill="black" stroke="black" points="862.55,-151.94 866.05,-161.94 869.55,-151.94 862.55,-151.94"/>
</g>
</g>
</svg>
