<?xml version="1.0" encoding="UTF-8" standalone="no"?>
<!DOCTYPE svg PUBLIC "-//W3C//DTD SVG 1.1//EN"
 "http://www.w3.org/Graphics/SVG/1.1/DTD/svg11.dtd">
<!-- Generated by graphviz version 2.44.0 (20200408.0750)
 -->
<!-- Title: dependencies Pages: 1 -->
<svg width="504pt" height="211pt"
 viewBox="0.00 0.00 504.00 211.00" xmlns="http://www.w3.org/2000/svg" xmlns:xlink="http://www.w3.org/1999/xlink">
<g id="graph0" class="graph" transform="scale(1 1) rotate(0) translate(4 207)">
<title>dependencies</title>
<polygon fill="white" stroke="transparent" points="-4,4 -4,-207 500,-207 500,4 -4,4"/>
<text text-anchor="start" x="227.01" y="-42.4" font-family="sans-serif" font-weight="bold" font-size="14.00">Legend</text>
<polygon fill="#ffffb3" stroke="transparent" points="14,-10 14,-30 34,-30 34,-10 14,-10"/>
<text text-anchor="start" x="37.63" y="-15.4" font-family="sans-serif" font-size="14.00"> &#160;Declarations</text>
<polygon fill="#8dd3c7" stroke="transparent" points="127,-10 127,-30 147,-30 147,-10 127,-10"/>
<text text-anchor="start" x="150.73" y="-15.4" font-family="sans-serif" font-size="14.00"> &#160;Module</text>
<polygon fill="#80b1d3" stroke="transparent" points="213,-10 213,-30 233,-30 233,-10 213,-10"/>
<text text-anchor="start" x="236.78" y="-15.4" font-family="sans-serif" font-size="14.00"> &#160;Bootstrap</text>
<polygon fill="#fdb462" stroke="transparent" points="310,-10 310,-30 330,-30 330,-10 310,-10"/>
<text text-anchor="start" x="333.67" y="-15.4" font-family="sans-serif" font-size="14.00"> &#160;Providers</text>
<polygon fill="#fb8072" stroke="transparent" points="406,-10 406,-30 426,-30 426,-10 406,-10"/>
<text text-anchor="start" x="429.73" y="-15.4" font-family="sans-serif" font-size="14.00"> &#160;Exports</text>
<g id="clust1" class="cluster">
<title>cluster_ConsultaRoutingModule</title>
<polygon fill="none" stroke="black" stroke-dasharray="1,5" points="83,-70 83,-195 413,-195 413,-70 83,-70"/>
</g>
<g id="clust4" class="cluster">
<title>cluster_ConsultaRoutingModule_imports</title>
<polygon fill="none" stroke="black" points="291,-78 291,-130 405,-130 405,-78 291,-78"/>
</g>
<g id="clust2" class="cluster">
<title>cluster_ConsultaRoutingModule_declarations</title>
<polygon fill="none" stroke="black" points="91,-78 91,-130 283,-130 283,-78 91,-78"/>
</g>
<!-- ConsultaImoveisComponent -->
<g id="node1" class="node">
<title>ConsultaImoveisComponent</title>
<polygon fill="#ffffb3" stroke="black" points="275.21,-122 98.79,-122 98.79,-86 275.21,-86 275.21,-122"/>
<text text-anchor="middle" x="187" y="-99.8" font-family="Times,serif" font-size="14.00">ConsultaImoveisComponent</text>
</g>
<!-- ConsultaRoutingModule -->
<g id="node2" class="node">
<title>ConsultaRoutingModule</title>
<polygon fill="#8dd3c7" stroke="black" points="334.45,-187 331.45,-191 310.45,-191 307.45,-187 179.55,-187 179.55,-151 334.45,-151 334.45,-187"/>
<text text-anchor="middle" x="257" y="-164.8" font-family="Times,serif" font-size="14.00">ConsultaRoutingModule</text>
</g>
<!-- ConsultaImoveisComponent&#45;&gt;ConsultaRoutingModule -->
<g id="edge1" class="edge">
<title>ConsultaImoveisComponent&#45;&gt;ConsultaRoutingModule</title>
<path fill="none" stroke="black" d="M227.44,-122.11C227.44,-122.11 227.44,-140.99 227.44,-140.99"/>
<polygon fill="black" stroke="black" points="223.94,-140.99 227.44,-150.99 230.94,-140.99 223.94,-140.99"/>
</g>
<!-- SharedModule -->
<g id="node3" class="node">
<title>SharedModule</title>
<polygon fill="#8dd3c7" stroke="black" points="397.42,-122 394.42,-126 373.42,-126 370.42,-122 298.58,-122 298.58,-86 397.42,-86 397.42,-122"/>
<text text-anchor="middle" x="348" y="-99.8" font-family="Times,serif" font-size="14.00">SharedModule</text>
</g>
<!-- SharedModule&#45;&gt;ConsultaRoutingModule -->
<g id="edge2" class="edge">
<title>SharedModule&#45;&gt;ConsultaRoutingModule</title>
<path fill="none" stroke="black" d="M316.51,-122.11C316.51,-122.11 316.51,-140.99 316.51,-140.99"/>
<polygon fill="black" stroke="black" points="313.01,-140.99 316.51,-150.99 320.01,-140.99 313.01,-140.99"/>
</g>
</g>
</svg>
