<?xml version="1.0" encoding="UTF-8" standalone="no"?>
<!DOCTYPE svg PUBLIC "-//W3C//DTD SVG 1.1//EN"
 "http://www.w3.org/Graphics/SVG/1.1/DTD/svg11.dtd">
<!-- Generated by graphviz version 2.44.0 (20200408.0750)
 -->
<!-- Title: dependencies Pages: 1 -->
<svg width="1517pt" height="284pt"
 viewBox="0.00 0.00 1517.00 284.00" xmlns="http://www.w3.org/2000/svg" xmlns:xlink="http://www.w3.org/1999/xlink">
<g id="graph0" class="graph" transform="scale(1 1) rotate(0) translate(4 280)">
<title>dependencies</title>
<polygon fill="white" stroke="transparent" points="-4,4 -4,-280 1513,-280 1513,4 -4,4"/>
<text text-anchor="start" x="733.51" y="-42.4" font-family="sans-serif" font-weight="bold" font-size="14.00">Legend</text>
<polygon fill="#ffffb3" stroke="transparent" points="520.5,-10 520.5,-30 540.5,-30 540.5,-10 520.5,-10"/>
<text text-anchor="start" x="544.13" y="-15.4" font-family="sans-serif" font-size="14.00"> &#160;Declarations</text>
<polygon fill="#8dd3c7" stroke="transparent" points="633.5,-10 633.5,-30 653.5,-30 653.5,-10 633.5,-10"/>
<text text-anchor="start" x="657.23" y="-15.4" font-family="sans-serif" font-size="14.00"> &#160;Module</text>
<polygon fill="#80b1d3" stroke="transparent" points="719.5,-10 719.5,-30 739.5,-30 739.5,-10 719.5,-10"/>
<text text-anchor="start" x="743.28" y="-15.4" font-family="sans-serif" font-size="14.00"> &#160;Bootstrap</text>
<polygon fill="#fdb462" stroke="transparent" points="816.5,-10 816.5,-30 836.5,-30 836.5,-10 816.5,-10"/>
<text text-anchor="start" x="840.17" y="-15.4" font-family="sans-serif" font-size="14.00"> &#160;Providers</text>
<polygon fill="#fb8072" stroke="transparent" points="912.5,-10 912.5,-30 932.5,-30 932.5,-10 912.5,-10"/>
<text text-anchor="start" x="936.23" y="-15.4" font-family="sans-serif" font-size="14.00"> &#160;Exports</text>
<g id="clust1" class="cluster">
<title>cluster_SharedModule</title>
<polygon fill="none" stroke="black" stroke-dasharray="1,5" points="8,-70 8,-268 1501,-268 1501,-70 8,-70"/>
</g>
<g id="clust2" class="cluster">
<title>cluster_SharedModule_declarations</title>
<polygon fill="none" stroke="black" points="16,-78 16,-130 1493,-130 1493,-78 16,-78"/>
</g>
<g id="clust13" class="cluster">
<title>cluster_SharedModule_exports</title>
<polygon fill="none" stroke="black" points="673,-208 673,-260 787,-260 787,-208 673,-208"/>
</g>
<!-- AccountCardComponent -->
<g id="node1" class="node">
<title>AccountCardComponent</title>
<polygon fill="#ffffb3" stroke="black" points="1484.97,-122 1329.03,-122 1329.03,-86 1484.97,-86 1484.97,-122"/>
<text text-anchor="middle" x="1407" y="-99.8" font-family="Times,serif" font-size="14.00">AccountCardComponent</text>
</g>
<!-- SharedModule -->
<g id="node10" class="node">
<title>SharedModule</title>
<polygon fill="#8dd3c7" stroke="black" points="779.42,-187 776.42,-191 755.42,-191 752.42,-187 680.58,-187 680.58,-151 779.42,-151 779.42,-187"/>
<text text-anchor="middle" x="730" y="-164.8" font-family="Times,serif" font-size="14.00">SharedModule</text>
</g>
<!-- AccountCardComponent&#45;&gt;SharedModule -->
<g id="edge1" class="edge">
<title>AccountCardComponent&#45;&gt;SharedModule</title>
<path fill="none" stroke="black" d="M1407,-122.01C1407,-144.49 1407,-180 1407,-180 1407,-180 789.23,-180 789.23,-180"/>
<polygon fill="black" stroke="black" points="789.23,-176.5 779.23,-180 789.23,-183.5 789.23,-176.5"/>
</g>
<!-- AuthLayoutComponent -->
<g id="node2" class="node">
<title>AuthLayoutComponent</title>
<polygon fill="#ffffb3" stroke="black" points="1311.49,-122 1162.51,-122 1162.51,-86 1311.49,-86 1311.49,-122"/>
<text text-anchor="middle" x="1237" y="-99.8" font-family="Times,serif" font-size="14.00">AuthLayoutComponent</text>
</g>
<!-- AuthLayoutComponent&#45;&gt;SharedModule -->
<g id="edge2" class="edge">
<title>AuthLayoutComponent&#45;&gt;SharedModule</title>
<path fill="none" stroke="black" d="M1237,-122.13C1237,-142.57 1237,-173 1237,-173 1237,-173 789.54,-173 789.54,-173"/>
<polygon fill="black" stroke="black" points="789.54,-169.5 779.54,-173 789.54,-176.5 789.54,-169.5"/>
</g>
<!-- MainLayoutComponent -->
<g id="node3" class="node">
<title>MainLayoutComponent</title>
<polygon fill="#ffffb3" stroke="black" points="1144.04,-122 993.96,-122 993.96,-86 1144.04,-86 1144.04,-122"/>
<text text-anchor="middle" x="1069" y="-99.8" font-family="Times,serif" font-size="14.00">MainLayoutComponent</text>
</g>
<!-- MainLayoutComponent&#45;&gt;SharedModule -->
<g id="edge3" class="edge">
<title>MainLayoutComponent&#45;&gt;SharedModule</title>
<path fill="none" stroke="black" d="M1069,-122.27C1069,-140.56 1069,-166 1069,-166 1069,-166 789.29,-166 789.29,-166"/>
<polygon fill="black" stroke="black" points="789.29,-162.5 779.29,-166 789.29,-169.5 789.29,-162.5"/>
</g>
<!-- MainNavComponent -->
<g id="node4" class="node">
<title>MainNavComponent</title>
<polygon fill="#ffffb3" stroke="black" points="976.2,-122 841.8,-122 841.8,-86 976.2,-86 976.2,-122"/>
<text text-anchor="middle" x="909" y="-99.8" font-family="Times,serif" font-size="14.00">MainNavComponent</text>
</g>
<!-- MainNavComponent&#45;&gt;SharedModule -->
<g id="edge4" class="edge">
<title>MainNavComponent&#45;&gt;SharedModule</title>
<path fill="none" stroke="black" d="M909,-122.01C909,-138.05 909,-159 909,-159 909,-159 789.39,-159 789.39,-159"/>
<polygon fill="black" stroke="black" points="789.39,-155.5 779.39,-159 789.39,-162.5 789.39,-155.5"/>
</g>
<!-- MatConfirmDeleteComponent -->
<g id="node5" class="node">
<title>MatConfirmDeleteComponent</title>
<polygon fill="#ffffb3" stroke="black" points="823.85,-122 636.15,-122 636.15,-86 823.85,-86 823.85,-122"/>
<text text-anchor="middle" x="730" y="-99.8" font-family="Times,serif" font-size="14.00">MatConfirmDeleteComponent</text>
</g>
<!-- MatConfirmDeleteComponent&#45;&gt;SharedModule -->
<g id="edge5" class="edge">
<title>MatConfirmDeleteComponent&#45;&gt;SharedModule</title>
<path fill="none" stroke="black" d="M730,-122.11C730,-122.11 730,-140.99 730,-140.99"/>
<polygon fill="black" stroke="black" points="726.5,-140.99 730,-150.99 733.5,-140.99 726.5,-140.99"/>
</g>
<!-- MenuComponent -->
<g id="node6" class="node">
<title>MenuComponent</title>
<polygon fill="#ffffb3" stroke="black" points="617.99,-122 504.01,-122 504.01,-86 617.99,-86 617.99,-122"/>
<text text-anchor="middle" x="561" y="-99.8" font-family="Times,serif" font-size="14.00">MenuComponent</text>
</g>
<!-- MenuComponent&#45;&gt;SharedModule -->
<g id="edge6" class="edge">
<title>MenuComponent&#45;&gt;SharedModule</title>
<path fill="none" stroke="black" d="M561,-122.01C561,-138.05 561,-159 561,-159 561,-159 670.66,-159 670.66,-159"/>
<polygon fill="black" stroke="black" points="670.66,-162.5 680.66,-159 670.66,-155.5 670.66,-162.5"/>
</g>
<!-- MenuDropdownComponent -->
<g id="node7" class="node">
<title>MenuDropdownComponent</title>
<polygon fill="#ffffb3" stroke="black" points="485.87,-122 312.13,-122 312.13,-86 485.87,-86 485.87,-122"/>
<text text-anchor="middle" x="399" y="-99.8" font-family="Times,serif" font-size="14.00">MenuDropdownComponent</text>
</g>
<!-- MenuDropdownComponent&#45;&gt;SharedModule -->
<g id="edge7" class="edge">
<title>MenuDropdownComponent&#45;&gt;SharedModule</title>
<path fill="none" stroke="black" d="M399,-122.27C399,-140.56 399,-166 399,-166 399,-166 670.45,-166 670.45,-166"/>
<polygon fill="black" stroke="black" points="670.45,-169.5 680.45,-166 670.45,-162.5 670.45,-169.5"/>
</g>
<!-- SidenavComponent -->
<g id="node8" class="node">
<title>SidenavComponent</title>
<polygon fill="#ffffb3" stroke="black" points="294.44,-122 167.56,-122 167.56,-86 294.44,-86 294.44,-122"/>
<text text-anchor="middle" x="231" y="-99.8" font-family="Times,serif" font-size="14.00">SidenavComponent</text>
</g>
<!-- SidenavComponent&#45;&gt;SharedModule -->
<g id="edge8" class="edge">
<title>SidenavComponent&#45;&gt;SharedModule</title>
<path fill="none" stroke="black" d="M231,-122.13C231,-142.57 231,-173 231,-173 231,-173 670.79,-173 670.79,-173"/>
<polygon fill="black" stroke="black" points="670.79,-176.5 680.79,-173 670.79,-169.5 670.79,-176.5"/>
</g>
<!-- ToolbarComponent -->
<g id="node9" class="node">
<title>ToolbarComponent</title>
<polygon fill="#ffffb3" stroke="black" points="149.65,-122 24.35,-122 24.35,-86 149.65,-86 149.65,-122"/>
<text text-anchor="middle" x="87" y="-99.8" font-family="Times,serif" font-size="14.00">ToolbarComponent</text>
</g>
<!-- ToolbarComponent&#45;&gt;SharedModule -->
<g id="edge9" class="edge">
<title>ToolbarComponent&#45;&gt;SharedModule</title>
<path fill="none" stroke="black" d="M87,-122.01C87,-144.49 87,-180 87,-180 87,-180 670.61,-180 670.61,-180"/>
<polygon fill="black" stroke="black" points="670.61,-183.5 680.61,-180 670.61,-176.5 670.61,-183.5"/>
</g>
<!-- FormsModule  -->
<g id="node11" class="node">
<title>FormsModule </title>
<polygon fill="#fb8072" stroke="black" points="779.33,-252 680.67,-252 680.67,-216 779.33,-216 779.33,-252"/>
<text text-anchor="middle" x="730" y="-229.8" font-family="Times,serif" font-size="14.00">FormsModule </text>
</g>
<!-- SharedModule&#45;&gt;FormsModule  -->
<g id="edge10" class="edge">
<title>SharedModule&#45;&gt;FormsModule </title>
<path fill="none" stroke="black" stroke-dasharray="5,2" d="M730,-187.11C730,-187.11 730,-205.99 730,-205.99"/>
<polygon fill="black" stroke="black" points="726.5,-205.99 730,-215.99 733.5,-205.99 726.5,-205.99"/>
</g>
</g>
</svg>
