<?xml version="1.0" encoding="UTF-8" standalone="no"?>
<!DOCTYPE svg PUBLIC "-//W3C//DTD SVG 1.1//EN"
 "http://www.w3.org/Graphics/SVG/1.1/DTD/svg11.dtd">
<!-- Generated by graphviz version 2.44.0 (20200408.0750)
 -->
<!-- Title: dependencies Pages: 1 -->
<svg width="504pt" height="211pt"
 viewBox="0.00 0.00 504.00 211.00" xmlns="http://www.w3.org/2000/svg" xmlns:xlink="http://www.w3.org/1999/xlink">
<g id="graph0" class="graph" transform="scale(1 1) rotate(0) translate(4 207)">
<title>dependencies</title>
<polygon fill="white" stroke="transparent" points="-4,4 -4,-207 500,-207 500,4 -4,4"/>
<text text-anchor="start" x="227.01" y="-42.4" font-family="sans-serif" font-weight="bold" font-size="14.00">Legend</text>
<polygon fill="#ffffb3" stroke="transparent" points="14,-10 14,-30 34,-30 34,-10 14,-10"/>
<text text-anchor="start" x="37.63" y="-15.4" font-family="sans-serif" font-size="14.00"> &#160;Declarations</text>
<polygon fill="#8dd3c7" stroke="transparent" points="127,-10 127,-30 147,-30 147,-10 127,-10"/>
<text text-anchor="start" x="150.73" y="-15.4" font-family="sans-serif" font-size="14.00"> &#160;Module</text>
<polygon fill="#80b1d3" stroke="transparent" points="213,-10 213,-30 233,-30 233,-10 213,-10"/>
<text text-anchor="start" x="236.78" y="-15.4" font-family="sans-serif" font-size="14.00"> &#160;Bootstrap</text>
<polygon fill="#fdb462" stroke="transparent" points="310,-10 310,-30 330,-30 330,-10 310,-10"/>
<text text-anchor="start" x="333.67" y="-15.4" font-family="sans-serif" font-size="14.00"> &#160;Providers</text>
<polygon fill="#fb8072" stroke="transparent" points="406,-10 406,-30 426,-30 426,-10 406,-10"/>
<text text-anchor="start" x="429.73" y="-15.4" font-family="sans-serif" font-size="14.00"> &#160;Exports</text>
<g id="clust1" class="cluster">
<title>cluster_FormsRoutingModule</title>
<polygon fill="none" stroke="black" stroke-dasharray="1,5" points="84,-70 84,-195 412,-195 412,-70 84,-70"/>
</g>
<g id="clust2" class="cluster">
<title>cluster_FormsRoutingModule_declarations</title>
<polygon fill="none" stroke="black" points="214,-78 214,-130 404,-130 404,-78 214,-78"/>
</g>
<g id="clust4" class="cluster">
<title>cluster_FormsRoutingModule_imports</title>
<polygon fill="none" stroke="black" points="92,-78 92,-130 206,-130 206,-78 92,-78"/>
</g>
<!-- CadastrarImovelComponent -->
<g id="node1" class="node">
<title>CadastrarImovelComponent</title>
<polygon fill="#ffffb3" stroke="black" points="396.13,-122 221.87,-122 221.87,-86 396.13,-86 396.13,-122"/>
<text text-anchor="middle" x="309" y="-99.8" font-family="Times,serif" font-size="14.00">CadastrarImovelComponent</text>
</g>
<!-- FormsRoutingModule -->
<g id="node2" class="node">
<title>FormsRoutingModule</title>
<polygon fill="#8dd3c7" stroke="black" points="305.45,-187 302.45,-191 281.45,-191 278.45,-187 164.55,-187 164.55,-151 305.45,-151 305.45,-187"/>
<text text-anchor="middle" x="235" y="-164.8" font-family="Times,serif" font-size="14.00">FormsRoutingModule</text>
</g>
<!-- CadastrarImovelComponent&#45;&gt;FormsRoutingModule -->
<g id="edge1" class="edge">
<title>CadastrarImovelComponent&#45;&gt;FormsRoutingModule</title>
<path fill="none" stroke="black" d="M263.46,-122.11C263.46,-122.11 263.46,-140.99 263.46,-140.99"/>
<polygon fill="black" stroke="black" points="259.96,-140.99 263.46,-150.99 266.96,-140.99 259.96,-140.99"/>
</g>
<!-- SharedModule -->
<g id="node3" class="node">
<title>SharedModule</title>
<polygon fill="#8dd3c7" stroke="black" points="198.42,-122 195.42,-126 174.42,-126 171.42,-122 99.58,-122 99.58,-86 198.42,-86 198.42,-122"/>
<text text-anchor="middle" x="149" y="-99.8" font-family="Times,serif" font-size="14.00">SharedModule</text>
</g>
<!-- SharedModule&#45;&gt;FormsRoutingModule -->
<g id="edge2" class="edge">
<title>SharedModule&#45;&gt;FormsRoutingModule</title>
<path fill="none" stroke="black" d="M181.49,-122.11C181.49,-122.11 181.49,-140.99 181.49,-140.99"/>
<polygon fill="black" stroke="black" points="177.99,-140.99 181.49,-150.99 184.99,-140.99 177.99,-140.99"/>
</g>
</g>
</svg>
