<?xml version="1.0" encoding="UTF-8" standalone="no"?>
<!DOCTYPE svg PUBLIC "-//W3C//DTD SVG 1.1//EN"
 "http://www.w3.org/Graphics/SVG/1.1/DTD/svg11.dtd">
<!-- Generated by graphviz version 2.40.1 (20161225.0304)
 -->
<!-- Title: dependencies Pages: 1 -->
<svg width="604pt" height="211pt"
 viewBox="0.00 0.00 604.00 211.00" xmlns="http://www.w3.org/2000/svg" xmlns:xlink="http://www.w3.org/1999/xlink">
<g id="graph0" class="graph" transform="scale(1 1) rotate(0) translate(4 207)">
<title>dependencies</title>
<polygon fill="#ffffff" stroke="transparent" points="-4,4 -4,-207 600,-207 600,4 -4,4"/>
<text text-anchor="start" x="277.0091" y="-42.4" font-family="sans-serif" font-weight="bold" font-size="14.00" fill="#000000">Legend</text>
<polygon fill="#ffffb3" stroke="transparent" points="64,-10 64,-30 84,-30 84,-10 64,-10"/>
<text text-anchor="start" x="87.629" y="-15.4" font-family="sans-serif" font-size="14.00" fill="#000000"> &#160;Declarations</text>
<polygon fill="#8dd3c7" stroke="transparent" points="177,-10 177,-30 197,-30 197,-10 177,-10"/>
<text text-anchor="start" x="200.7251" y="-15.4" font-family="sans-serif" font-size="14.00" fill="#000000"> &#160;Module</text>
<polygon fill="#80b1d3" stroke="transparent" points="263,-10 263,-30 283,-30 283,-10 263,-10"/>
<text text-anchor="start" x="286.7812" y="-15.4" font-family="sans-serif" font-size="14.00" fill="#000000"> &#160;Bootstrap</text>
<polygon fill="#fdb462" stroke="transparent" points="360,-10 360,-30 380,-30 380,-10 360,-10"/>
<text text-anchor="start" x="383.6732" y="-15.4" font-family="sans-serif" font-size="14.00" fill="#000000"> &#160;Providers</text>
<polygon fill="#fb8072" stroke="transparent" points="456,-10 456,-30 476,-30 476,-10 456,-10"/>
<text text-anchor="start" x="479.7258" y="-15.4" font-family="sans-serif" font-size="14.00" fill="#000000"> &#160;Exports</text>
<g id="clust1" class="cluster">
<title>cluster_AuthModule</title>
<polygon fill="none" stroke="#000000" stroke-dasharray="1,5" points="8,-70 8,-195 588,-195 588,-70 8,-70"/>
</g>
<g id="clust3" class="cluster">
<title>cluster_AuthModule_imports</title>
<polygon fill="none" stroke="#000000" points="478,-78 478,-130 580,-130 580,-78 478,-78"/>
</g>
<g id="clust6" class="cluster">
<title>cluster_AuthModule_providers</title>
<polygon fill="none" stroke="#000000" points="16,-78 16,-130 470,-130 470,-78 16,-78"/>
</g>
<!-- UserModule -->
<g id="node1" class="node">
<title>UserModule</title>
<polygon fill="#8dd3c7" stroke="#000000" points="571.9762,-122 568.9762,-126 547.9762,-126 544.9762,-122 486.0238,-122 486.0238,-86 571.9762,-86 571.9762,-122"/>
<text text-anchor="middle" x="529" y="-99.8" font-family="Times,serif" font-size="14.00" fill="#000000">UserModule</text>
</g>
<!-- AuthModule -->
<g id="node2" class="node">
<title>AuthModule</title>
<polygon fill="#8dd3c7" stroke="#000000" points="371.5482,-187 368.5482,-191 347.5482,-191 344.5482,-187 284.4518,-187 284.4518,-151 371.5482,-151 371.5482,-187"/>
<text text-anchor="middle" x="328" y="-164.8" font-family="Times,serif" font-size="14.00" fill="#000000">AuthModule</text>
</g>
<!-- UserModule&#45;&gt;AuthModule -->
<g id="edge1" class="edge">
<title>UserModule&#45;&gt;AuthModule</title>
<path fill="none" stroke="#000000" d="M529,-122.1061C529,-141.3391 529,-169 529,-169 529,-169 381.614,-169 381.614,-169"/>
<polygon fill="#000000" stroke="#000000" points="381.614,-165.5001 371.614,-169 381.614,-172.5001 381.614,-165.5001"/>
</g>
<!-- AuthService -->
<g id="node3" class="node">
<title>AuthService</title>
<ellipse fill="#fdb462" stroke="#000000" cx="403" cy="-104" rx="59.1083" ry="18"/>
<text text-anchor="middle" x="403" y="-99.8" font-family="Times,serif" font-size="14.00" fill="#000000">AuthService</text>
</g>
<!-- AuthService&#45;&gt;AuthModule -->
<g id="edge2" class="edge">
<title>AuthService&#45;&gt;AuthModule</title>
<path fill="none" stroke="#000000" d="M357.7348,-115.922C357.7348,-115.922 357.7348,-140.7669 357.7348,-140.7669"/>
<polygon fill="#000000" stroke="#000000" points="354.2349,-140.7669 357.7348,-150.7669 361.2349,-140.7669 354.2349,-140.7669"/>
</g>
<!-- DefaultStrategy -->
<g id="node4" class="node">
<title>DefaultStrategy</title>
<ellipse fill="#fdb462" stroke="#000000" cx="254" cy="-104" rx="72.3458" ry="18"/>
<text text-anchor="middle" x="254" y="-99.8" font-family="Times,serif" font-size="14.00" fill="#000000">DefaultStrategy</text>
</g>
<!-- DefaultStrategy&#45;&gt;AuthModule -->
<g id="edge3" class="edge">
<title>DefaultStrategy&#45;&gt;AuthModule</title>
<path fill="none" stroke="#000000" d="M305.1996,-116.8419C305.1996,-116.8419 305.1996,-140.5231 305.1996,-140.5231"/>
<polygon fill="#000000" stroke="#000000" points="301.6997,-140.523 305.1996,-150.5231 308.6997,-140.5231 301.6997,-140.523"/>
</g>
<!-- MasterStrategy -->
<g id="node5" class="node">
<title>MasterStrategy</title>
<ellipse fill="#fdb462" stroke="#000000" cx="94" cy="-104" rx="70.0577" ry="18"/>
<text text-anchor="middle" x="94" y="-99.8" font-family="Times,serif" font-size="14.00" fill="#000000">MasterStrategy</text>
</g>
<!-- MasterStrategy&#45;&gt;AuthModule -->
<g id="edge4" class="edge">
<title>MasterStrategy&#45;&gt;AuthModule</title>
<path fill="none" stroke="#000000" d="M94,-122.1061C94,-141.3391 94,-169 94,-169 94,-169 274.2609,-169 274.2609,-169"/>
<polygon fill="#000000" stroke="#000000" points="274.2609,-172.5001 284.2609,-169 274.2609,-165.5001 274.2609,-172.5001"/>
</g>
</g>
</svg>
